<svg width="100%" height="100%">
  <text x="9" y="77.173828" id="text1308">false</text>
  <text id="text1312" y="155.17383" x="9" xml:space="preserve">false</text>
  <path style="fill:none;fill-opacity:0.75;fill-rule:evenodd;stroke:#000000;stroke-width:7.5;stroke-linecap:round;stroke-linejoin:miter;stroke-opacity:1;stroke-miterlimit:4;stroke-dasharray:none" d="M 72,51 L 185,51" id="path1316"></path>
  <use x="0" y="0" xlink:href="#path1316" id="use1318" transform="translate(0,78)" width="500" height="180"></use>
  <use x="0" y="0" xlink:href="#path1316" id="use2208" transform="translate(196.5757,39)" width="500" height="180"></use>
  <path id="rect2193" style="fill:#ffffff;fill-opacity:1;fill-rule:evenodd;stroke:#000000;stroke-width:7.49999857;stroke-linecap:butt;stroke-linejoin:round;stroke-miterlimit:4;stroke-dashoffset:0;stroke-opacity:1" d="M 207,171 L 135.7,170.99994 L 135.7,12.499996 L 207.46,12.49997 C 246.3576,12.499945 278.3,48.003958 278.3,91.749974 C 278.3,135.49599 246.3576,171 207,171 z "></path>
  <text x="350" y="80" id="text2210">true</text>
  <path transform="translate(12.90989,-0.353527)" d="M 305.47014 89.843887 A 20.152544 20.152544 0 1 1  265.16505,89.843887 A 20.152544 20.152544 0 1 1  305.47014 89.843887 z" id="path2247" style="opacity:1;fill:#ffffff;fill-opacity:1;fill-rule:evenodd;stroke:#000000;stroke-width:7.5;stroke-linecap:round;stroke-linejoin:round;stroke-miterlimit:4;stroke-dasharray:none;stroke-dashoffset:0;stroke-opacity:1"></path>
  </svg>
  